<svg version="1.1" xmlns="http://www.w3.org/2000/svg" viewBox="0 0 330 100" width="190">
  <path d="M149.308 35.894h23.74V26.56h-35.88v52.823h12.14V57.477h22.23v-9.388h-22.23Zm58.759 23.256c0 8.956-2.698 13.111-8.472 13.111-5.126 0-8.201-4.586-8.201-13.111 0-8.526 2.698-12.788 8.471-12.788 5.18 0 8.202 4.316 8.202 12.788Zm12.032-.108c0-12.302-5.881-20.882-20.342-20.882-13.813 0-20.45 8.688-20.45 20.882 0 12.734 6.691 21.097 20.234 21.097 13.813 0 20.558-8.31 20.558-21.097Zm7.824 20.341h11.816V20.14h-11.816Zm47.913 0h12.788l-14.892-24.496 13.651-15.971h-12.518l-13.22 15.917V20.14H249.83v59.244h11.817v-14.19l4.046-3.4Zm50.612-12.464c0-8.147-6.043-10.79-14.353-12.68-7.931-1.834-8.849-3.129-8.849-5.45 0-1.834 1.457-3.344 5.072-3.344 3.4 0 5.99 1.672 6.097 4.856l10.954-.756c-.864-6.582-7.015-11.385-16.673-11.385-10.576 0-16.187 4.91-16.187 12.14 0 6.637 3.345 10.63 13.543 13.004 6.583 1.511 8.525 2.536 8.525 5.288 0 2.482-1.78 3.993-5.827 3.993-4.64 0-6.42-2.806-6.69-5.504l-10.738 1.187c.917 6.205 5.45 11.87 17.59 11.87 11.655 0 17.536-4.91 17.536-13.219ZM110.528 63.162h-.01c4.946-6.499 7.72-14.091 7.559-22.155C117.622 17.803 93.072-.53 63.25.056 33.43.642 9.626 19.929 10.082 43.128c.008.425.024.848.05 1.27l1.46-.938c-.007-.128 7.872-4.19 7.872-4.318 0-16.874 24.472-33.096 43.782-33.096 17.41 0 47.216 9.987 47.216 35.042-.001 7.572-4.349 15.16-9.05 21.26-3.936 6.098.76 19.834.76 19.834L86.727 73.96c-4.04 1.258-10.292 1.847-12.007 2.331-2.068 4.838-5.28 7.553-5.28 7.553 5.44-.38 9.636-1.306 14.495-2.84l27.365 11.762c-.001 0-9.268-18.717-.77-29.604zm-72.713-25.23C17.747 37.536 1.228 49.874.921 65.49c-.11 5.425 1.76 10.534 5.084 14.907H6c5.717 7.326-.518 19.922-.518 19.922l18.415-7.915c3.969 1.253 8.282 1.98 12.8 2.07 20.069.395 36.588-11.942 36.896-27.558.309-15.613-15.71-28.59-35.778-28.986z" />
</svg>